<?xml version="1.0" encoding="UTF-8" standalone="no"?>
<!-- Created with Inkscape (http://www.inkscape.org/) -->

<svg
   xmlns:dc="http://purl.org/dc/elements/1.1/"
   xmlns:cc="http://creativecommons.org/ns#"
   xmlns:rdf="http://www.w3.org/1999/02/22-rdf-syntax-ns#"
   xmlns:svg="http://www.w3.org/2000/svg"
   xmlns="http://www.w3.org/2000/svg"
   xmlns:sodipodi="http://sodipodi.sourceforge.net/DTD/sodipodi-0.dtd"
   xmlns:inkscape="http://www.inkscape.org/namespaces/inkscape"
   width="128"
   height="128"
   viewBox="0 0 128 128"
   id="svg2"
   version="1.1"
   inkscape:version="0.91 r13725"
   sodipodi:docname="favicon2.svg">
  <defs
     id="defs4" />
  <sodipodi:namedview
     id="base"
     pagecolor="#ffffff"
     bordercolor="#666666"
     borderopacity="1.0"
     inkscape:pageopacity="0.0"
     inkscape:pageshadow="2"
     inkscape:zoom="1.979899"
     inkscape:cx="86.253253"
     inkscape:cy="44.718692"
     inkscape:document-units="px"
     inkscape:current-layer="g4149"
     showgrid="false"
     units="px"
     inkscape:window-width="1366"
     inkscape:window-height="715"
     inkscape:window-x="0"
     inkscape:window-y="27"
     inkscape:window-maximized="1" />
  <metadata
     id="metadata7">
    <rdf:RDF>
      <cc:Work
         rdf:about="">
        <dc:format>image/svg+xml</dc:format>
        <dc:type
           rdf:resource="http://purl.org/dc/dcmitype/StillImage" />
        <dc:title />
      </cc:Work>
    </rdf:RDF>
  </metadata>
  <g
     inkscape:label="Layer 1"
     inkscape:groupmode="layer"
     id="layer1"
     transform="translate(0,-924.36216)">
    <g
       id="g4149">
      <rect
         style="opacity:1;fill:#1196bf;fill-opacity:0.99375;stroke:none;stroke-width:4;stroke-miterlimit:4;stroke-dasharray:none;stroke-opacity:1"
         id="rect4192"
         width="60"
         height="60"
         x="0"
         y="924.83167" />
      <rect
         y="925.33679"
         x="67.680222"
         height="60"
         width="60"
         id="rect4194"
         style="opacity:1;fill:#1196bf;fill-opacity:0.99375;stroke:none;stroke-width:4;stroke-miterlimit:4;stroke-dasharray:none;stroke-opacity:1" />
      <path
         style="opacity:1;fill:#fdfafc;fill-opacity:0.99375;stroke:none;stroke-width:4;stroke-miterlimit:4;stroke-dasharray:none;stroke-opacity:1"
         id="path4210"
         sodipodi:type="arc"
         sodipodi:cx="30.304579"
         sodipodi:cy="953.87231"
         sodipodi:rx="22.223354"
         sodipodi:ry="22.223354"
         sodipodi:start="3.0710639"
         sodipodi:end="3.0650076"
         sodipodi:open="true"
         d="M 8.1364744,955.4384 A 22.223354,22.223354 0 0 1 28.70493,931.70661 22.223354,22.223354 0 0 1 52.467839,952.23911 22.223354,22.223354 0 0 1 31.971341,976.03308 22.223354,22.223354 0 0 1 8.1463656,955.57263" />
      <path
         style="opacity:1;fill:#fcfafc;fill-opacity:0.99375;stroke:none;stroke-width:4;stroke-miterlimit:4;stroke-dasharray:none;stroke-opacity:1"
         d="m 109.99177,933.55968 -12.271643,11.71608 -11.740249,-11.20873 -9.005227,8.59558 11.742295,11.20872 -11.742295,11.21069 9.005227,8.59558 11.740249,-11.20873 12.271643,11.71608 9.00318,-8.59754 -12.27164,-11.71608 12.27164,-11.71412 -9.00318,-8.59753 z"
         id="rect4212"
         inkscape:connector-curvature="0" />
      <rect
         y="992.0069"
         x="67.680222"
         height="60"
         width="60"
         id="rect4231"
         style="opacity:1;fill:#1196bf;fill-opacity:0.99375;stroke:none;stroke-width:4;stroke-miterlimit:4;stroke-dasharray:none;stroke-opacity:1" />
      <rect
         style="opacity:1;fill:#1196bf;fill-opacity:0.99375;stroke:none;stroke-width:4;stroke-miterlimit:4;stroke-dasharray:none;stroke-opacity:1"
         id="rect4233"
         width="60"
         height="60"
         x="0"
         y="992.0069" />
      <path
         d="m 75.816698,1023.1187 a 22.223354,22.223354 0 0 1 20.568456,-23.7318 22.223354,22.223354 0 0 1 23.762906,20.5325 22.223354,22.223354 0 0 1 -20.496495,23.794 22.223354,22.223354 0 0 1 -23.824976,-20.4605"
         sodipodi:open="true"
         sodipodi:end="3.0650076"
         sodipodi:start="3.0710639"
         sodipodi:ry="22.223354"
         sodipodi:rx="22.223354"
         sodipodi:cy="1021.5526"
         sodipodi:cx="97.984802"
         sodipodi:type="arc"
         id="path4235"
         style="opacity:1;fill:#fdfafc;fill-opacity:0.99375;stroke:none;stroke-width:4;stroke-miterlimit:4;stroke-dasharray:none;stroke-opacity:1" />
      <path
         inkscape:connector-curvature="0"
         id="path4237"
         d="m 42.311552,1001.2399 -12.271651,11.7162 -11.740249,-11.2088 -9.0052268,8.5956 11.7422948,11.2088 -11.7422948,11.2106 9.0052268,8.5956 11.740249,-11.2087 12.271651,11.7161 9.00318,-8.5976 -12.27164,-11.716 12.27164,-11.7142 -9.00318,-8.5976 z"
         style="opacity:1;fill:#fcfafc;fill-opacity:0.99375;stroke:none;stroke-width:4;stroke-miterlimit:4;stroke-dasharray:none;stroke-opacity:1" />
    </g>
  </g>
</svg>
